inDegrees=no
num_controls=7
num_derivatives=13
num_iterations=77
num_multipliers=7
num_parameters=0
num_slacks=7
num_states=26
objective=0.554178
objective_accelerations=0.002815
objective_balance=0.006558
objective_effort=0.016782
objective_height=0.499407
objective_ligament=0.028616
solver_duration=828.416100
status=Solve_Succeeded
success=true
DataType=double
version=3
OpenSimVersion=4.5
endheader
time	/jointset/ground_pelvis/pelvis_tilt/value	/jointset/ground_pelvis/pelvis_tx/value	/jointset/ground_pelvis/pelvis_ty/value	/jointset/hip_r/hip_flexion_r/value	/jointset/hip_r/hip_adduction_r/value	/jointset/hip_r/hip_rotation_r/value	/jointset/back/lumbar_extension/value	/jointset/patellofemoral_r/patellar_flexion_r/value	/jointset/knee_r/knee_flexion_r/value	/jointset/knee_r/knee_adduction_r/value	/jointset/knee_r/knee_rotation_r/value	/jointset/ankle_r/ankle_angle_r/value	/jointset/subtalar_r/subtalar_angle_r/value	/jointset/ground_pelvis/pelvis_tilt/speed	/jointset/ground_pelvis/pelvis_tx/speed	/jointset/ground_pelvis/pelvis_ty/speed	/jointset/hip_r/hip_flexion_r/speed	/jointset/hip_r/hip_adduction_r/speed	/jointset/hip_r/hip_rotation_r/speed	/jointset/back/lumbar_extension/speed	/jointset/patellofemoral_r/patellar_flexion_r/speed	/jointset/knee_r/knee_flexion_r/speed	/jointset/knee_r/knee_adduction_r/speed	/jointset/knee_r/knee_rotation_r/speed	/jointset/ankle_r/ankle_angle_r/speed	/jointset/subtalar_r/subtalar_angle_r/speed	/forceset/tau_hip_flexion_r	/forceset/tau_hip_adduction_r	/forceset/tau_hip_rotation_r	/forceset/tau_knee_flexion_r	/forceset/tau_ankle_angle_r	/forceset/tau_subtalar_angle_r	/forceset/tau_lumbar_extension	lambda_cid13_p0	lambda_cid14_p0	lambda_cid14_p1	lambda_cid14_p2	lambda_cid14_p3	lambda_cid14_p4	lambda_cid14_p5	/jointset/ground_pelvis/pelvis_tilt/accel	/jointset/ground_pelvis/pelvis_tx/accel	/jointset/ground_pelvis/pelvis_ty/accel	/jointset/hip_r/hip_flexion_r/accel	/jointset/hip_r/hip_adduction_r/accel	/jointset/hip_r/hip_rotation_r/accel	/jointset/back/lumbar_extension/accel	/jointset/patellofemoral_r/patellar_flexion_r/accel	/jointset/knee_r/knee_flexion_r/accel	/jointset/knee_r/knee_adduction_r/accel	/jointset/knee_r/knee_rotation_r/accel	/jointset/ankle_r/ankle_angle_r/accel	/jointset/subtalar_r/subtalar_angle_r/accel	gamma_cid13_p0	gamma_cid14_p0	gamma_cid14_p1	gamma_cid14_p2	gamma_cid14_p3	gamma_cid14_p4	gamma_cid14_p5
1	-0.005034748473483205	0.1174976950141347	0.949353132791763	0.1519505701495642	-0.1140892884038056	-0.0860646978282719	-0.0383624694242897	0.03890901452896572	0.03890901452896664	-0.07188585024269735	-0.04439527375338708	0.06826153794401069	0.1342314457558424	-0.01393609110768825	0.01191223956821283	0.001106116982764899	-0.02427699118545006	0.008171504323317903	0.004126371609387812	0.04888331400493624	-0.04620701657796655	-0.04620701657797507	-0.01263597745025853	-0.01254201300185755	-0.008512681346775745	0.006218574534571183	0.09321901211859551	0.01004254879942323	0.02267287177531396	-0.1704906252531831	0.1177370858285388	-0.04581791586249744	-0.01124547932649478	-33.35784760855332	-9.645395261780907	-25.13911232494937	8.524557627211983	9.496667640643009	-695.0401212959747	30.72053973385021	0.09907912208241637	-0.1092478583111538	0.004291228635937997	0.02761737348093604	-0.003155271081150591	0.02665979813213721	0.1068747429385774	0.007684274826576997	0.00768427482657709	0.008114284701221009	-0.00707339576387751	-0.1259536518817899	-0.04746515634883257	9.693023940920701e-12	4.788466365727874e-11	9.447346984377299e-11	6.745143244604591e-11	-4.644373466167788e-11	8.424160017862451e-11	-5.817018281492935e-11
1.01	-0.005169134046092913	0.1176113561203773	0.9493644109763753	0.1517091579536602	-0.114007736088396	-0.08602209872599605	-0.03786833892913301	0.03844733232389008	0.0384473323238869	-0.07201179533461625	-0.04452104791989017	0.06817011820850297	0.1342912540317003	-0.01294099436341428	0.01081991543295932	0.001149524816388134	-0.02400455338748277	0.008138760825364683	0.004393152220675492	0.04994088102707513	-0.04612785437624908	-0.04612785437625132	-0.01255282568441026	-0.01261229010571747	-0.009770564944488686	0.005743086066501352	0.09336173914253476	0.01039090874072338	0.02267301523886622	-0.1703452155235594	0.1178513921654817	-0.04615169739369376	-0.01141007605798925	-33.33691475853625	-9.633264650737534	-25.28390667621048	8.549877188428175	9.480695224001085	-695.0377879688644	30.43478792604807	0.09972930777543507	-0.109234640877042	0.004366332671941802	0.0271911778976274	-0.003363541303775793	0.02664271029652511	0.1049120819252553	0.008267699058315578	0.008267699059227751	0.00844793646992105	-0.006925329698465362	-0.1256005827010051	-0.04758986177843713	1.426105902466616e-11	7.834944599142547e-11	3.721187003411988e-11	9.866029967389751e-11	-6.293511093774726e-11	2.010113316497796e-10	-1.879327223361424e-10
1.02	-0.005293567779823508	0.1177140919953185	0.9493761233937129	0.1514704969747292	-0.1139265171383952	-0.0859768407140733	-0.03736368988373905	0.03798648884207629	0.0379864888420751	-0.07213690244608811	-0.04464750894984142	0.06806614066322103	0.134346307588929	-0.01194572333212467	0.009727193307908402	0.001192963527876577	-0.02372674779179973	0.008104831241356966	0.004658153538741458	0.05098702405216204	-0.04603927192597222	-0.04603927192596818	-0.0124683813608298	-0.01267938568963232	-0.01102424330160022	0.005267630808735936	0.09350446616651185	0.01073926868202031	0.02267315870235953	-0.1701998057939174	0.1179656985024333	-0.04648547892488979	-0.01157467278945882	-33.31598212177902	-9.621425508068484	-25.42848334849962	8.574855110752862	9.472162170137668	-695.03602174604	30.14974016389801	0.09911397948554314	-0.1093274562706405	0.00429740420897987	0.02869093302409384	-0.003392488292046335	0.02630393948777751	0.104589943528182	0.009568324538443368	0.009568324538443406	0.008372796247654829	-0.006437091774845007	-0.125112603761522	-0.04745851428794989	1.064163273220227e-11	6.493112872929806e-11	9.68880484390918e-11	6.354736206741574e-11	-5.489321039070314e-11	1.874839544392888e-10	-8.855765919691466e-11
1.03	-0.005408046657378442	0.11780589873664	0.9493882704274612	0.1512346382477974	-0.113845643316239	-0.08592894299681872	-0.03684863846759023	0.03752657603776338	0.03752657603775949	-0.0722611585511784	-0.04477462397193754	0.06794964654597763	0.1343966066953491	-0.01094998401491445	0.008634087679683719	0.001236439095954145	-0.023444139885734	0.008069735731290528	0.004920974409233172	0.05202123794403293	-0.04594172045370151	-0.04594172045369909	-0.01238261757474359	-0.01274298151194834	-0.01227387173459345	0.004792208936048067	0.09366814688101299	0.01106210093764738	0.02267753093902611	-0.1700956613808091	0.118135669079896	-0.04680317525604097	-0.01175593824241205	-33.29505410154483	-9.59058081356496	-25.56500193877096	8.601124626389709	9.455682218924412	-695.0330230642314	29.88072834227742	0.09981413243426784	-0.1093122169013812	0.004372048667671382	0.02817437919230008	-0.003597675646112742	0.02620883588438205	0.1025339269561929	0.01008382957947057	0.01008382957919864	0.008711510751908631	-0.006225246895188882	-0.1247816998342181	-0.04758122751842064	6.938660915491306e-12	5.106502473659617e-11	1.577574694789075e-10	2.775767135037918e-11	-4.660097028423936e-11	1.72627014895311e-10	1.315554274497195e-11
1.04	-0.005512566096841099	0.1178867724015185	0.9494008521000025	0.1510016313318901	-0.1137651263678388	-0.08587842953584811	-0.03632330554953356	0.03706768580237695	0.03706768580237661	-0.07238455035021489	-0.04490235583615033	0.0678206773970511	0.1344421521422904	-0.009953835713889849	0.007540578019325843	0.001279891286458033	-0.02315638558789306	0.008033456489937731	0.005181302281905985	0.05304332443348941	-0.0458347581411072	-0.0458347581411064	-0.01229552015014449	-0.01280275411167144	-0.01351924963822669	0.004316898912991026	0.09383182759555578	0.01138493319327028	0.02268190317565063	-0.1699915169676786	0.1183056396573681	-0.04712087158719296	-0.0119372036953379	-33.27413525326764	-9.560009746981907	-25.70129637143389	8.627047638110362	9.446568866530718	-695.0304015838219	29.61240141871203	0.09919577624842206	-0.1094082626972893	0.004292728694244149	0.02972021137914326	-0.003629234549314491	0.0258053399239798	0.1021644630452962	0.01145049260315095	0.01145049260315082	0.008639523950228187	-0.005672447256243053	-0.1242624978895401	-0.04743614436178598	9.754440295413866e-12	5.856029184904391e-11	1.393639093510609e-10	4.9611637139461e-11	-4.865244645572948e-11	1.947974093068971e-10	-1.757135783667579e-11
